<?xml version="1.0" encoding="UTF-8"?>
<svg id="svg11300" width="128" height="128" style="enable-background:new" version="1.0" viewBox="0 0 128 128" xmlns="http://www.w3.org/2000/svg" xmlns:cc="http://creativecommons.org/ns#" xmlns:dc="http://purl.org/dc/elements/1.1/" xmlns:rdf="http://www.w3.org/1999/02/22-rdf-syntax-ns#" xmlns:xlink="http://www.w3.org/1999/xlink">
 <title id="title4162">Adwaita Icon Template</title>
 <defs id="defs3">
  <linearGradient id="linearGradient1053-2" x1="384" x2="416" y1="120" y2="120" gradientTransform="translate(0,640)" gradientUnits="userSpaceOnUse">
   <stop id="stop1452" style="stop-color:#deddda" offset="0"/>
   <stop id="stop1454" style="stop-color:#fff" offset=".51105"/>
   <stop id="stop1456" style="stop-color:#c0bfbc" offset="1"/>
  </linearGradient>
 </defs>
 <metadata id="metadata4">
  <rdf:RDF>
   <cc:Work rdf:about="">
    <dc:format>image/svg+xml</dc:format>
    <dc:type rdf:resource="http://purl.org/dc/dcmitype/StillImage"/>
    <dc:creator>
     <cc:Agent>
      <dc:title>GNOME Design Team</dc:title>
     </cc:Agent>
    </dc:creator>
    <dc:source/>
    <cc:license rdf:resource="http://creativecommons.org/licenses/by-sa/4.0/"/>
    <dc:title>Adwaita Icon Template</dc:title>
    <dc:subject>
     <rdf:Bag/>
    </dc:subject>
    <dc:date/>
    <dc:rights>
     <cc:Agent>
      <dc:title/>
     </cc:Agent>
    </dc:rights>
    <dc:publisher>
     <cc:Agent>
      <dc:title/>
     </cc:Agent>
    </dc:publisher>
    <dc:identifier/>
    <dc:relation/>
    <dc:language/>
    <dc:coverage/>
    <dc:description/>
    <dc:contributor>
     <cc:Agent>
      <dc:title/>
     </cc:Agent>
    </dc:contributor>
   </cc:Work>
   <cc:License rdf:about="http://creativecommons.org/licenses/by-sa/4.0/">
    <cc:permits rdf:resource="http://creativecommons.org/ns#Reproduction"/>
    <cc:permits rdf:resource="http://creativecommons.org/ns#Distribution"/>
    <cc:requires rdf:resource="http://creativecommons.org/ns#Notice"/>
    <cc:requires rdf:resource="http://creativecommons.org/ns#Attribution"/>
    <cc:permits rdf:resource="http://creativecommons.org/ns#DerivativeWorks"/>
    <cc:requires rdf:resource="http://creativecommons.org/ns#ShareAlike"/>
   </cc:License>
  </rdf:RDF>
 </metadata>
 <g id="layer1" transform="translate(0,-172)">
  <g id="layer3" style="display:none">
   <circle id="circle2892" cx="64" cy="236" r="59.504" style="display:inline;enable-background:new;fill:none;opacity:.1;paint-order:normal;stroke-dasharray:0.99000001, 0.99000001;stroke-width:.99;stroke:#000"/>
   <rect id="rect2894" x="20.495" y="180.49" width="87.01" height="111.01" rx="8.701" ry="7.9293" style="display:inline;enable-background:new;fill:none;opacity:.1;paint-order:normal;stroke-dasharray:0.99000001, 0.99000001;stroke-width:.99;stroke:#000"/>
   <rect id="rect2896" x="12.495" y="184.5" width="103.01" height="103.01" rx="7.9238" ry="7.9238" style="display:inline;enable-background:new;fill:none;opacity:.1;paint-order:normal;stroke-dasharray:0.99000001, 0.99000001;stroke-width:.99;stroke:#000"/>
   <rect id="rect2898" x="8.495" y="200.49" width="111.01" height="87.01" rx="7.9293" ry="8.701" style="display:inline;enable-background:new;fill:none;opacity:.1;paint-order:normal;stroke-dasharray:0.99000001, 0.99000001;stroke-width:.99;stroke:#000"/>
   <path id="path2900" d="m2.6203e-5 289h128" style="display:inline;enable-background:new;fill:none;stroke-width:2;stroke:#62a0ea"/>
  </g>
  <g id="layer9">
   <g id="g1308" transform="translate(192.5 2.5)" style="enable-background:new">
    <rect id="rect1036-36" x="-92.5" y="193.5" width="16" height="24" rx="8" ry="8.0034" style="enable-background:new;fill:#f8e45c;paint-order:normal"/>
    <rect id="rect1036-3-7" x="-92.5" y="209.5" width="16" height="24" rx="8" ry="8.0034" style="enable-background:new;fill:#2ec27e;paint-order:normal"/>
    <rect id="rect1036-3-3-5" x="-92.5" y="225.5" width="16" height="24" rx="8" ry="8.0034" style="enable-background:new;fill:#c061cb;paint-order:normal"/>
    <rect id="rect1036-3-3-6-3" x="-92.5" y="241.5" width="16" height="24" rx="8" ry="8.0034" style="enable-background:new;fill:#f66151;paint-order:normal"/>
    <g id="g1002" transform="matrix(.25 0 0 .25 -188.5 62.5)" style="enable-background:new">
     <path id="rect954-3" d="m64 540v368h320c17.728 0 32-14.272 32-32v-304c0-17.728-14.272-32-32-32z" style="enable-background:new;fill:#1d60b5;paint-order:normal"/>
     <path id="rect954-3-6-1" d="m72 620v280h312c17.728 0 32-14.272 32-32v-216c0-17.728-14.272-32-32-32z" style="enable-background:new;fill:url(#linearGradient1053-2);paint-order:normal"/>
     <path id="rect954-3-2" d="m64 540v336h320c17.728 0 32-14.272 32-32v-272c0-17.728-14.272-32-32-32z" style="enable-background:new;fill:#2864b0;paint-order:normal"/>
     <path id="rect954-3-2-9-0-3" d="m64 460v408h320c17.728 0 32-14.272 32-32v-344c0-17.728-14.272-32-32-32z" style="enable-background:new;fill:#3584e4;paint-order:normal"/>
     <path id="rect1366-2" d="m72 460h8v408h-8z" style="enable-background:new;fill:#fff;opacity:.187;paint-order:normal"/>
    </g>
    <path id="path882-5" d="m-132.76 229.59q0 2.7859 1.1778 4.394 1.2004 1.6081 3.2389 1.6081 2.0158 0 3.2162-1.6081 1.2004-1.6308 1.2004-4.394 0-2.7406-1.2231-4.3261-1.2004-1.6081-3.2389-1.6081-1.9932 0-3.1936 1.6081-1.1778 1.5855-1.1778 4.3261zm9.2863 6.8175q-0.67949 1.6081-2.197 2.5141-1.4949 0.88333-3.5107 0.88333-3.8957 0-6.3419-2.8086-2.4235-2.8312-2.4235-7.3611t2.4462-7.3611q2.4462-2.8312 6.3192-2.8312 2.0158 0 3.5107 0.90598 1.5175 0.90598 2.197 2.5141v-2.9671h4.7338v15.696q2.8086-0.43034 4.4167-2.6953 1.6081-2.2876 1.6081-5.8436 0-2.265-0.65684-4.2355-0.65684-1.9932-1.9932-3.6466-2.1517-2.7632-5.3906-4.2581-3.2162-1.4949-6.9761-1.4949-2.6274 0-5.0282 0.70214-2.4009 0.67949-4.4393 2.0158-3.3521 2.2197-5.2321 5.753-1.8573 3.5107-1.8573 7.6103 0 3.3748 1.2004 6.3419 1.2231 2.9444 3.5107 5.2094 2.265 2.2197 5.1868 3.3748 2.9444 1.1778 6.2739 1.1778 2.8538 0 5.7077-1.0645t4.8697-2.8765l2.4235 3.6692q-2.8312 2.197-6.1833 3.3521-3.3295 1.1778-6.7722 1.1778-4.1902 0-7.9047-1.4949-3.7145-1.4722-6.6137-4.3034t-4.4167-6.5457q-1.5175-3.7372-1.5175-8.018 0-4.1222 1.5402-7.8594 1.5402-3.7372 4.394-6.5684 2.8538-2.8086 6.6363-4.3487 3.8051-1.5402 7.8821-1.5402 5.0735 0 9.2184 1.9479 4.1449 1.9252 6.9308 5.5718 1.6987 2.2197 2.5594 4.8244 0.88333 2.582 0.88333 5.4359 0 6.138-3.6919 9.5355-3.6919 3.3974-10.419 3.3974h-0.88333z" style="enable-background:new;fill:#fff"/>
   </g>
  </g>
 </g>
</svg>
