<?xml version="1.0" encoding="UTF-8"?>
<svg width="128px" height="128px" viewBox="0 0 128 128" xmlns="http://www.w3.org/2000/svg">
 <linearGradient id="a" x1="88.596" x2="536.6" y1="-449.39" y2="-449.39" gradientTransform="matrix(.23214 0 0 .32895 -8.5669 267.83)" gradientUnits="userSpaceOnUse">
  <stop stop-color="#c0bfbc" offset="0"/>
  <stop stop-color="#f6f5f4" offset=".038462"/>
  <stop stop-color="#c0bfbc" offset=".076856"/>
  <stop stop-color="#deddda" offset=".92308"/>
  <stop stop-color="#c0bfbc" offset=".96154"/>
  <stop stop-color="#c0bfbc" offset="1"/>
 </linearGradient>
 <radialGradient id="b" cx="-256" cy="311.78" r="52.002" gradientTransform="matrix(1 0 0 .6072 368 -71.312)" gradientUnits="userSpaceOnUse">
  <stop stop-opacity=".052532" offset="0"/>
  <stop stop-opacity="0" offset="1"/>
 </radialGradient>
 <path d="m20 20h88c4.418 0 8 3.582 8 8v84c0 4.418-3.582 8-8 8h-88c-4.418 0-8-3.582-8-8v-84c0-4.418 3.582-8 8-8z" fill="url(#a)"/>
 <path d="m20.496 51.848c-4.6992 0-8.5 3.8008-8.5 8.5v50.152c0 4.6992 3.8008 8.5 8.5 8.5h87.004c4.6992 0 8.5-3.8008 8.5-8.5v-50.152c0-4.6992-3.8008-8.5-8.5-8.5zm0 1h87.004c3.1094 0 5.7617 1.8633 6.8984 4.543-1.5391-2.1445-4.0508-3.543-6.8984-3.543h-87.004c-2.8477 0-5.3594 1.3984-6.9023 3.543 1.1406-2.6797 3.793-4.543 6.9023-4.543zm0 2h87.004c3.1094 0 5.7617 1.8633 6.8984 4.543-1.5391-2.1445-4.0508-3.543-6.8984-3.543h-87.004c-2.8477 0-5.3594 1.3984-6.9023 3.543 1.1406-2.6797 3.793-4.543 6.9023-4.543zm0 2h87.004c4.1641 0 7.5 3.3359 7.5 7.5v42.152c0 4.1641-3.3359 7.5-7.5 7.5h-87.004c-4.1641 0-7.5-3.3359-7.5-7.5v-42.152c0-4.1641 3.3359-7.5 7.5-7.5zm-6.9023 54.609c1.543 2.1445 4.0547 3.543 6.9023 3.543h87.004c2.8477 0 5.3594-1.3984 6.8984-3.543-1.1367 2.6797-3.7891 4.543-6.8984 4.543h-87.004c-3.1094 0-5.7617-1.8633-6.9023-4.543zm0 2c1.543 2.1445 4.0547 3.543 6.9023 3.543h87.004c2.8477 0 5.3594-1.3984 6.8984-3.543-1.1367 2.6797-3.7891 4.543-6.8984 4.543h-87.004c-3.1094 0-5.7617-1.8633-6.9023-4.543z" fill="url(#b)"/>
 <path d="m20 12h88c4.418 0 8 3.582 8 8v84c0 4.418-3.582 8-8 8h-88c-4.418 0-8-3.582-8-8v-84c0-4.418 3.582-8 8-8z" fill="#deddda"/>
 <path d="m65.281 27.562h-1.2422l0.23828-2.8945h6.3555v-2.8281h-9.293l-0.78125 8.5742h3.8945c2.7617 0 3.5469 0.78125 3.5469 1.9805 0 1.2383-1.0898 1.9805-2.8516 1.9805-1.5859 0-3.1758-0.5-4.3281-1.3711l-1.3945 2.6992c1.4805 1.043 3.6992 1.6289 5.8125 1.6289 4.3516 0 6.332-2.3477 6.332-5.0469 0-2.6992-1.7852-4.7227-6.2891-4.7227z" fill="#241f31"/>
 <g fill="#62a0ea">
  <path d="m26 46h78v2h-78z"/>
  <path d="m26 78h78v2h-78z"/>
  <path d="m50 24v78h-2v-78z"/>
  <path d="m82 24v78h-2v-78z"/>
 </g>
 <path d="m50 48h30v30h-30z" fill="#99c1f1"/>
 <path d="m57.73 54.051v6.3242h3.6992v-2.9297h5.9648l-6.4531 14.598h4.5234l6.6836-15.293v-2.6992z" fill="#fff"/>
 <path d="m101.24 29.066c1.1289-0.69922 1.7812-1.7656 1.7812-3.1367 0-2.6758-2.3906-4.3516-5.8945-4.3516-3.4609 0-5.8555 1.6758-5.8555 4.3516 0 1.3711 0.63281 2.4375 1.7617 3.1367-1.457 0.73828-2.3047 1.957-2.3047 3.5898 0 2.8711 2.5469 4.6758 6.3984 4.6758 3.8711 0 6.4414-1.8047 6.4414-4.6758 0-1.6328-0.85156-2.8516-2.3281-3.5898zm-4.1133-4.8984c1.4336 0 2.3906 0.71875 2.3906 1.9141 0 1.1562-0.93359 1.8711-2.3906 1.8711-1.4375 0-2.3516-0.71484-2.3516-1.8711 0-1.1953 0.9375-1.9141 2.3516-1.9141zm0 10.574c-1.7422 0-2.832-0.84766-2.832-2.1953 0-1.3516 1.0898-2.1758 2.832-2.1758 1.7617 0 2.8711 0.82422 2.8711 2.1758 0 1.3477-1.1094 2.1953-2.8711 2.1953z" fill="#3584e4"/>
 <path d="m29.43 21.84v2.8281h3.0469v12.406h3.5234v-15.234z" fill="#241f31"/>
 <path d="m38.48 98h-2.4805v-2.8516h-3.3281v2.8516h-4.0938l6.6602-9.1602h-3.6992l-7.1797 9.6602v2.3711h8.2031v3.1992h3.4375v-3.1992h2.4805z" fill="#241f31"/>
 <path d="m53 83.031v-3h-3.6445c-0.8125 0-1.418-0.60547-1.418-1.418v-3.6133h-3v3.6133c0 2.4219 1.9961 4.418 4.418 4.418zm23.938 0v-3h3.6445c0.8125 0 1.418-0.60547 1.418-1.418v-3.6133h3v3.6133c0 2.4219-1.9961 4.418-4.418 4.418zm-23.938-40.031v3h-3.6445c-0.8125 0-1.418 0.60547-1.418 1.418v3.6133h-3v-3.6133c0-2.4219 1.9961-4.418 4.418-4.418zm23.938 0v3h3.6445c0.8125 0 1.418 0.60547 1.418 1.418v3.6133h3v-3.6133c0-2.4219-1.9961-4.418-4.418-4.418z" fill="#1a5fb4"/>
 <path d="m53 82v-3h-3.6445c-0.8125 0-1.418-0.60547-1.418-1.418v-3.6133h-3v3.6133c0 2.4219 1.9961 4.418 4.418 4.418zm23.938 0v-3h3.6445c0.8125 0 1.418-0.60547 1.418-1.418v-3.6133h3v3.6133c0 2.4219-1.9961 4.418-4.418 4.418zm-23.938-40.031v3h-3.6445c-0.8125 0-1.418 0.60547-1.418 1.418v3.6133h-3v-3.6133c0-2.4219 1.9961-4.418 4.418-4.418zm23.938 0v3h3.6445c0.8125 0 1.418 0.60547 1.418 1.418v3.6133h3v-3.6133c0-2.4219-1.9961-4.418-4.418-4.418z" fill="#1c71d8"/>
</svg>
